<?xml version="1.0" encoding="utf-8"?>
<!-- Generator: Adobe Illustrator 19.0.0, SVG Export Plug-In . SVG Version: 6.00 Build 0)  -->
<svg version="1.1" id="Layer_1" xmlns="http://www.w3.org/2000/svg" xmlns:xlink="http://www.w3.org/1999/xlink" x="0px" y="0px"
	 viewBox="0 0 200 200" style="enable-background:new 0 0 200 200;" xml:space="preserve">
<style type="text/css">
	.st0{opacity:0.7;}
	.st1{fill:#252525;}
	.st2{opacity:0.7;fill:#FFFFFF;}
</style>
<g id="XMLID_1_">
	<g id="XMLID_6_" class="st0">
		<circle id="XMLID_2_" cx="100" cy="100" r="97.6"/>
		<path id="XMLID_3_" class="st1" d="M100,200C44.9,200,0,155.1,0,100S44.9,0,100,0s100,44.9,100,100S155.1,200,100,200z M100,4.9
			C47.5,4.9,4.9,47.5,4.9,100s42.7,95.1,95.1,95.1s95.1-42.7,95.1-95.1S152.5,4.9,100,4.9z"/>
	</g>
	<path id="XMLID_7_" class="st2" d="M114.8,148.8c-1.3,0-2.6-0.5-3.6-1.6L70,102.9l41.2-45.2c1.8-2,4.9-2.1,6.9-0.3
		c2,1.8,2.1,4.9,0.3,6.9l-35.2,38.5l35.1,37.8c1.8,2,1.7,5.1-0.2,6.9C117.2,148.3,116,148.8,114.8,148.8z"/>
</g>
</svg>
