<?xml version="1.0" encoding="utf-8"?>
<!-- Generator: Adobe Illustrator 19.0.0, SVG Export Plug-In . SVG Version: 6.00 Build 0)  -->
<svg version="1.1" id="Layer_1" xmlns="http://www.w3.org/2000/svg" xmlns:xlink="http://www.w3.org/1999/xlink" x="0px" y="0px"
	 viewBox="0 0 200 78.6" style="enable-background:new 0 0 200 78.6;" xml:space="preserve">
<g id="XMLID_1_">
	<rect id="XMLID_2_" y="0" width="21.4" height="78.6"/>
	<polygon id="XMLID_11_" points="60.1,38.7 50,0 28.6,0 28.6,78.6 42.9,78.6 42.9,28.6 57.1,78.6 64.3,78.6 78.6,28.6 78.6,78.6 
		92.9,78.6 92.9,0 71.4,0 	"/>
	<path id="XMLID_14_" d="M142.9,14.3C142.9,1.6,128.6,0,128.6,0H100v78.6c0,0,22.2,0,28.6,0c16.2,0,14.3-14.3,14.3-14.3
		S142.9,32.7,142.9,14.3z M128.6,57.1c0,0-1.2,7.1-7.1,7.1h-7.1v-50h7.1c0,0,7.1,0,7.1,7.1C128.6,25.5,128.6,57.1,128.6,57.1z"/>
	<path id="XMLID_17_" d="M188.8,23.8c-5.7,0-7,2.2-9.7,3.5c-2.6,1.4-7.7,1.3-7.7,1.3V0h-14.3v78.6h14.3l0-6.2c0,0,4,1,7.2,3.8
		c3.2,2.8,8.6,2.4,8.6,2.4c7-0.1,12.5-5.3,12.8-9.5c0,0,0-29,0-33.3C200,31.4,194.5,23.8,188.8,23.8z M185.7,65.3
		c0,0-2.5,4.6-6.9,4.6s-7.4-3.4-7.4-3.4V33.7c0,0,3.9-1.2,7.2-1.2s7.1,2.4,7.1,4.2C185.7,38.5,185.7,65.3,185.7,65.3z"/>
</g>
</svg>
