<?xml version="1.0" encoding="utf-8"?>
<!-- Generator: Adobe Illustrator 19.0.0, SVG Export Plug-In . SVG Version: 6.00 Build 0)  -->
<svg version="1.1" id="Layer_1" xmlns="http://www.w3.org/2000/svg" xmlns:xlink="http://www.w3.org/1999/xlink" x="0px" y="0px"
	 viewBox="0 0 200 200" style="enable-background:new 0 0 200 200;" xml:space="preserve">
<path id="XMLID_5_" d="M100,0C44.8,0,0,44.8,0,100s44.8,100,100,100s100-44.8,100-100S155.2,0,100,0z M62.8,35.2
	c14.9,0,27,12.1,27,27c0,14.9-12.1,27-27,27c-14.9,0-27-12.1-27-27C35.7,47.3,47.8,35.2,62.8,35.2z M62.8,162.2
	c-14.9,0-27-12.1-27-27s12.1-27,27-27c14.9,0,27,12.1,27,27S77.7,162.2,62.8,162.2z M140.3,162.2c-14.9,0-27-12.1-27-27
	s12.1-27,27-27c14.9,0,27,12.1,27,27S155.2,162.2,140.3,162.2z M140.3,89.3c-14.9,0-27-12.1-27-27c0-14.9,12.1-27,27-27
	c14.9,0,27,12.1,27,27C167.3,77.2,155.2,89.3,140.3,89.3z"/>
</svg>
